<svg width="30" height="30" fill="none" xmlns="http://www.w3.org/2000/svg"><path d="M11.064 22.125a5.625 5.625 0 007.955 0l4.015-4.015a1.875 1.875 0 10-2.651-2.651l-3.48 3.477-.028-17.061a1.875 1.875 0 10-3.75 0l.026 17.034L9.7 15.458a1.875 1.875 0 00-2.651 2.65l4.015 4.017z" fill="#FDFBE5"/><path d="M28.125 18.125c-1.035 0-1.875.84-1.875 1.875v5.739c0 .282-.23.51-.511.511H4.26a.512.512 0 01-.511-.511V20A1.875 1.875 0 000 20v5.739A4.266 4.266 0 004.261 30H25.74A4.266 4.266 0 0030 25.739V20a1.874 1.874 0 00-1.874-1.875z" fill="#FDFBE5"/></svg>