<svg width="20" height="20" fill="none" xmlns="http://www.w3.org/2000/svg"><path d="M18.75 12.916a1.25 1.25 0 00-1.25 1.25v1.25a2.083 2.083 0 01-2.083 2.084h-1.25a1.25 1.25 0 100 2.5h1.25A4.588 4.588 0 0020 15.416v-1.25a1.25 1.25 0 00-1.25-1.25zM1.25 7.083a1.25 1.25 0 001.25-1.25v-1.25A2.083 2.083 0 014.583 2.5h1.25a1.25 1.25 0 100-2.5h-1.25A4.588 4.588 0 000 4.583v1.25a1.25 1.25 0 001.25 1.25zM5.833 17.5h-1.25A2.083 2.083 0 012.5 15.416v-1.25a1.25 1.25 0 10-2.5 0v1.25A4.588 4.588 0 004.583 20h1.25a1.25 1.25 0 000-2.5zM15.417 0h-1.25a1.25 1.25 0 100 2.5h1.25A2.084 2.084 0 0117.5 4.583v1.25a1.25 1.25 0 102.5 0v-1.25A4.589 4.589 0 0015.417 0zM10 9.167a2.917 2.917 0 100-5.834 2.917 2.917 0 000 5.834zm-4.908 5.706a.828.828 0 00.825.96h8.166a.826.826 0 00.827-.96 5 5 0 00-9.817 0h-.001z" fill="#FDFBE5"/></svg>