<svg width="50" height="50" fill="none" xmlns="http://www.w3.org/2000/svg"><mask id="a" fill="#fff"><path fill-rule="evenodd" clip-rule="evenodd" d="M19.226 0l-.06.06 5.893 5.892L30.952.059 30.892 0H50v19.226l-5.833 5.833L50 30.893V50H30.892l-5.833-5.833L19.226 50H0V30.893l.06.059 5.892-5.893-5.893-5.892-.059.059V0h19.226z"/></mask><path d="M19.167.06l-.707-.708-.707.707.707.707.707-.707zm.059-.06l.707.707L21.64-1h-2.414v1zm5.833 5.952l-.707.707.707.707.707-.707-.707-.707zM30.952.059l.707.707.707-.707-.707-.707-.707.707zM30.892 0v-1h-2.414L30.185.707 30.893 0zM50 0h1v-1h-1v1zm0 19.226l.707.707.293-.293v-.414h-1zm-5.833 5.833l-.707-.707-.708.707.708.707.707-.707zM50 30.893h1v-.415l-.293-.293-.707.708zM50 50v1h1v-1h-1zm-19.108 0l-.707.707.293.293h.414v-1zm-5.833-5.833l.707-.707-.707-.708-.707.708.707.707zM19.226 50v1h.414l.293-.293-.707-.707zM0 50h-1v1h1v-1zm0-19.107l.707-.707L-1 28.478v2.415h1zm.06.059l-.708.707.707.707.707-.707-.707-.707zm5.892-5.893l.707.707.707-.707-.707-.707-.707.707zM.059 19.167l.707-.707-.707-.707-.707.707.707.707zM0 19.226h-1v2.414l1.707-1.707L0 19.226zM0 0v-1h-1v1h1zm19.874.766l.059-.059-1.414-1.414-.06.06L19.875.765zm5.892 4.479L19.874-.648 18.46.766l5.892 5.893 1.414-1.414zm4.479-5.893l-5.893 5.893 1.414 1.414L31.66.766 30.245-.648zm-.06 1.355l.06.06 1.414-1.415-.06-.06L30.187.708zM50-1H30.893v2H50v-2zm1 20.226V0h-2v19.226h2zm-6.126 6.54l5.833-5.833-1.414-1.414-5.833 5.833 1.414 1.414zm5.833 4.42l-5.833-5.834-1.414 1.414 5.833 5.834 1.414-1.415zM51 50V30.893h-2V50h2zm-20.108 1H50v-2H30.892v2zm-6.54-6.126l5.833 5.833 1.415-1.414-5.834-5.833-1.414 1.414zm-4.419 5.833l5.833-5.833-1.414-1.414-5.833 5.833 1.414 1.414zM0 51h19.226v-2H0v2zm-1-20.107V50h2V30.893h-2zm1.766-.648l-.059-.06L-.707 31.6l.06.059 1.413-1.414zm4.479-5.893l-5.893 5.893 1.414 1.414 5.893-5.893-1.414-1.414zm-5.893-4.478l5.893 5.892 1.414-1.414L.766 18.46l-1.414 1.414zm1.355.059l.06-.06-1.415-1.413-.06.059 1.415 1.414zM-1 0v19.226h2V0h-2zm20.226-1H0v2h19.226v-2z" fill="#013865" mask="url(#a)"/><path d="M31 19L19 31m12 0L19 19" stroke="#013865"/></svg>