<svg width="243" height="22" fill="none" xmlns="http://www.w3.org/2000/svg"><path d="M168.5 12.7l73.7-1.5-73.7-1.5-10.9 1.5 10.9 1.5zm-47.1 9.2c0-2.3 8.6-11 11-11-2.3 0-11-8.6-11-11 0 2.3-8.6 11-11 11 2.4.1 11 8.7 11 11z" fill="#D6DBE8"/><path d="M236.4 14.8c0-.8 3-3.9 3.9-3.9-.8 0-3.9-3-3.9-3.9 0 .8-3 3.9-3.9 3.9.9.1 3.9 3.1 3.9 3.9z" fill="#D6DBE8"/><path d="M240.6 13.1c0-.5 1.7-2.2 2.2-2.2-.5 0-2.2-1.7-2.2-2.2 0 .5-1.7 2.2-2.2 2.2.5.1 2.2 1.8 2.2 2.2zm-100.8 5.4c0-1.6 15.6-7.6 17.3-7.6-1.6 0-17.3-6-17.3-7.6 0 1.6-6 7.6-7.6 7.6 1.6.1 7.6 6 7.6 7.6zm-65.5-5.8L.5 11.2l73.8-1.5 10.9 1.5-10.9 1.5z" fill="#D6DBE8"/><path d="M6.3 14.8c0-.8-3-3.9-3.9-3.9.8 0 3.9-3 3.9-3.9 0 .8 3 3.9 3.9 3.9-.9.1-3.9 3.1-3.9 3.9zm-4.1-1.7C2.2 12.7.5 11 0 11c.5 0 2.2-1.7 2.2-2.2 0 .5 1.7 2.2 2.2 2.2-.5 0-2.2 1.7-2.2 2.1zM103 18.5c0-1.6-15.6-7.6-17.3-7.6 1.6 0 17.3-6 17.3-7.6 0 1.6 6 7.6 7.6 7.6-1.7.1-7.6 6-7.6 7.6z" fill="#D6DBE8"/><path d="M102.5 16.9c0-1.3-12.2-5.9-13.5-5.9 1.3 0 13.5-4.7 13.5-5.9 0 1.3 4.7 5.9 5.9 5.9-1.2 0-5.9 4.6-5.9 5.9z" fill="#D6DBE8"/></svg>