<svg width="100" height="100" fill="none" xmlns="http://www.w3.org/2000/svg"><mask id="a" fill="#fff"><path fill-rule="evenodd" clip-rule="evenodd" d="M38.452 0l-.119.118 11.785 11.785L61.903.118 61.785 0H100v38.452L88.333 50.118 100 61.785V100H61.785L50.118 88.333 38.452 100H0V61.785l.118.119 11.785-11.786L.118 38.334 0 38.452V0h38.452z"/></mask><path fill-rule="evenodd" clip-rule="evenodd" d="M38.452 0l-.119.118 11.785 11.785L61.903.118 61.785 0H100v38.452L88.333 50.118 100 61.785V100H61.785L50.118 88.333 38.452 100H0V61.785l.118.119 11.785-11.786L.118 38.334 0 38.452V0h38.452z" fill="url(#paint0_linear_0_1075)"/><path d="M38.333.118L35.505-2.71 32.676.118l2.829 2.829L38.333.118zM38.452 0l2.828 2.828L48.11-4h-9.657v4zm11.666 11.903l-2.828 2.829 2.828 2.828 2.829-2.828-2.829-2.829zM61.903.118l2.829 2.829L67.56.118 64.732-2.71 61.904.118zM61.785 0v-4h-9.657l6.829 6.828L61.785 0zM100 0h4v-4h-4v4zm0 38.452l2.828 2.828L104 40.11v-1.657h-4zM88.333 50.118l-2.828-2.828-2.828 2.828 2.828 2.829 2.828-2.829zM100 61.785h4v-1.657l-1.172-1.171L100 61.785zM100 100v4h4v-4h-4zm-38.215 0l-2.828 2.828L60.128 104h1.657v-4zM50.118 88.333l2.829-2.828-2.829-2.828-2.828 2.828 2.828 2.828zM38.452 100v4h1.657l1.171-1.172L38.452 100zM0 100h-4v4h4v-4zm0-38.215l2.828-2.828L-4 52.128v9.657h4zm.118.119l-2.828 2.828L.118 67.56l2.829-2.828-2.829-2.828zm11.785-11.786l2.829 2.829 2.828-2.829-2.828-2.828-2.829 2.828zM.118 38.334l2.829-2.828-2.829-2.829-2.828 2.829 2.828 2.828zM0 38.452h-4v9.657l6.828-6.829L0 38.452zM0 0v-4h-4v4h4zm41.162 2.947l.118-.119-5.657-5.656-.118.118 5.657 5.657zm11.785 6.128L41.162-2.71l-5.657 5.657L47.29 14.732l5.657-5.657zM59.075-2.71L47.29 9.075l5.657 5.657L64.732 2.947 59.075-2.71zm-.118 5.538l.118.119 5.657-5.657-.118-.118-5.657 5.656zM100-4H61.785v8H100v-8zm4 42.452V0h-8v38.452h8zM91.162 52.947l11.666-11.667-5.656-5.657L85.505 47.29l5.657 5.657zm11.666 6.01L91.162 47.29l-5.657 5.657 11.667 11.666 5.656-5.656zM104 100V61.785h-8V100h8zm-42.215 4H100v-8H61.785v8zM47.29 91.162l11.667 11.666 5.657-5.656-11.667-11.667-5.657 5.657zm-6.01 11.666l11.667-11.666-5.657-5.657-11.667 11.667 5.657 5.656zM0 104h38.452v-8H0v8zm-4-42.215V100h8V61.785h-8zm6.947-2.71l-.119-.118-5.656 5.657.118.118 5.657-5.657zM9.075 47.29L-2.71 59.075l5.657 5.657 11.785-11.785-5.657-5.657zM-2.71 41.162L9.075 52.947l5.657-5.657L2.947 35.505l-5.657 5.657zm5.538.118l.119-.118-5.657-5.657-.118.118 5.656 5.657zM-4 0v38.452h8V0h-8zm42.452-4H0v8h38.452v-8z" fill="#FDFBE5" mask="url(#a)"/><defs><linearGradient id="paint0_linear_0_1075" x1="50" y1="0" x2="50" y2="100" gradientUnits="userSpaceOnUse"><stop stop-color="#012039" stop-opacity=".6"/><stop offset="1" stop-color="#012039" stop-opacity=".2"/></linearGradient></defs></svg>