<svg width="30" height="30" viewBox="0 0 30 30" fill="none" xmlns="http://www.w3.org/2000/svg">
<path d="M11.0638 22.125C13.2604 24.3217 16.822 24.3217 19.0187 22.1251L19.0188 22.125L23.0338 18.11C23.7787 17.3906 23.7993 16.2036 23.0799 15.4587C22.3605 14.7139 21.1735 14.6933 20.4286 15.4127C20.413 15.4277 20.3976 15.4431 20.3826 15.4587L16.9038 18.9362L16.875 1.875C16.875 0.839473 16.0356 0 15 0C13.9645 0 13.125 0.839473 13.125 1.875L13.1513 18.9087L9.70004 15.4575C8.9552 14.7381 7.76821 14.7587 7.04879 15.5036C6.34702 16.2302 6.34702 17.3821 7.04879 18.1087L11.0638 22.125Z" fill="#FDFBE5"/>
<path d="M28.125 18.125C27.0895 18.125 26.25 18.9645 26.25 20V25.7387C26.2493 26.0208 26.0208 26.2493 25.7388 26.25H4.26123C3.97916 26.2493 3.75064 26.0208 3.75 25.7387V20C3.75 18.9645 2.91053 18.125 1.875 18.125C0.839473 18.125 0 18.9645 0 20V25.7387C0.00275391 28.091 1.90898 29.9973 4.26123 30H25.7387C28.091 29.9973 29.9972 28.091 29.9999 25.7388V20.0001C30 18.9645 29.1605 18.125 28.125 18.125Z" fill="#FDFBE5"/>
</svg>
