<svg width="50" height="50" viewBox="0 0 50 50" fill="none" xmlns="http://www.w3.org/2000/svg">
<mask id="path-1-inside-1_0_1124" fill="white">
<path fill-rule="evenodd" clip-rule="evenodd" d="M19.2259 0L19.1667 0.0592041L25.0592 5.95176L30.9518 0.0592041L30.8926 0H50V19.2259L44.1667 25.0592L50 30.8926V50H30.8925L25.0592 44.1667L19.2259 50H0V30.8926L0.0592227 30.9518L5.95178 25.0592L0.0592227 19.1667L0 19.2259V0H19.2259Z"/>
</mask>
<path d="M19.1667 0.0592041L18.4596 -0.647903L17.7525 0.059204L18.4596 0.766311L19.1667 0.0592041ZM19.2259 0L19.933 0.707107L21.6401 -1H19.2259V0ZM25.0592 5.95176L24.3521 6.65887L25.0592 7.36597L25.7663 6.65887L25.0592 5.95176ZM30.9518 0.0592041L31.6589 0.766311L32.366 0.0592042L31.6589 -0.647903L30.9518 0.0592041ZM30.8926 0V-1H28.4784L30.1855 0.707107L30.8926 0ZM50 0H51V-1H50V0ZM50 19.2259L50.7071 19.933L51 19.6401V19.2259H50ZM44.1667 25.0592L43.4596 24.3521L42.7525 25.0592L43.4596 25.7663L44.1667 25.0592ZM50 30.8926H51V30.4783L50.7071 30.1855L50 30.8926ZM50 50V51H51V50H50ZM30.8925 50L30.1854 50.7071L30.4783 51H30.8925V50ZM25.0592 44.1667L25.7663 43.4596L25.0592 42.7525L24.3521 43.4596L25.0592 44.1667ZM19.2259 50V51H19.6401L19.933 50.7071L19.2259 50ZM0 50H-1V51H0V50ZM0 30.8926L0.70711 30.1855L-1 28.4783V30.8926H0ZM0.0592227 30.9518L-0.647887 31.6589L0.0592197 32.366L0.766329 31.6589L0.0592227 30.9518ZM5.95178 25.0592L6.65889 25.7663L7.36599 25.0592L6.65889 24.3521L5.95178 25.0592ZM0.0592227 19.1667L0.766329 18.4596L0.0592197 17.7525L-0.647887 18.4596L0.0592227 19.1667ZM0 19.2259H-1V21.6401L0.70711 19.933L0 19.2259ZM0 0V-1H-1V0H0ZM19.8738 0.766311L19.933 0.707107L18.5188 -0.707107L18.4596 -0.647903L19.8738 0.766311ZM25.7663 5.24465L19.8738 -0.647903L18.4596 0.766311L24.3521 6.65887L25.7663 5.24465ZM30.2447 -0.647903L24.3521 5.24465L25.7663 6.65887L31.6589 0.766311L30.2447 -0.647903ZM30.1855 0.707107L30.2447 0.766311L31.6589 -0.647903L31.5997 -0.707107L30.1855 0.707107ZM50 -1H30.8926V1H50V-1ZM51 19.2259V0H49V19.2259H51ZM44.8738 25.7663L50.7071 19.933L49.2929 18.5188L43.4596 24.3521L44.8738 25.7663ZM50.7071 30.1855L44.8738 24.3521L43.4596 25.7663L49.2929 31.5997L50.7071 30.1855ZM51 50V30.8926H49V50H51ZM30.8925 51H50V49H30.8925V51ZM24.3521 44.8738L30.1854 50.7071L31.5997 49.2929L25.7663 43.4596L24.3521 44.8738ZM19.933 50.7071L25.7663 44.8738L24.3521 43.4596L18.5188 49.2929L19.933 50.7071ZM0 51H19.2259V49H0V51ZM-1 30.8926V50H1V30.8926H-1ZM0.766332 30.2447L0.70711 30.1855L-0.70711 31.5997L-0.647887 31.6589L0.766332 30.2447ZM5.24467 24.3521L-0.647884 30.2447L0.766329 31.6589L6.65889 25.7663L5.24467 24.3521ZM-0.647884 19.8738L5.24467 25.7663L6.65889 24.3521L0.766329 18.4596L-0.647884 19.8738ZM0.70711 19.933L0.766332 19.8738L-0.647887 18.4596L-0.70711 18.5188L0.70711 19.933ZM-1 0V19.2259H1V0H-1ZM19.2259 -1H0V1H19.2259V-1Z" fill="#FDFBE5" mask="url(#path-1-inside-1_0_1124)"/>
</svg>
