<svg width="14" height="24" viewBox="0 0 14 24" fill="none" xmlns="http://www.w3.org/2000/svg">
<path d="M11.8983 8.04055L4.5608 0.70308C4.11058 0.253068 3.50003 0.000338321 2.86347 0.000488348C2.2269 0.000638375 1.61647 0.253655 1.16646 0.703879C0.716447 1.1541 0.463717 1.76465 0.463867 2.40122C0.464017 3.03778 0.717036 3.64821 1.16726 4.09822L8.50473 11.4341C8.57924 11.5084 8.63834 11.5967 8.67867 11.6939C8.719 11.7911 8.73976 11.8953 8.73976 12.0005C8.73976 12.1057 8.719 12.2099 8.67867 12.3071C8.63834 12.4043 8.57924 12.4926 8.50473 12.5669L1.16726 19.9028C0.717036 20.3528 0.464017 20.9632 0.463867 21.5998C0.463717 22.2363 0.716447 22.8469 1.16646 23.2971C1.61647 23.7473 2.2269 24.0003 2.86347 24.0005C3.50003 24.0006 4.11058 23.7479 4.5608 23.2979L11.8983 15.9604C12.9466 14.9092 13.5353 13.4851 13.5353 12.0005C13.5353 10.5159 12.9466 9.09179 11.8983 8.04055Z" fill="#FDFBE5"/>
</svg>
