<svg width="14" height="24" viewBox="0 0 14 24" fill="none" xmlns="http://www.w3.org/2000/svg">
<path d="M2.10172 8.04055L9.4392 0.70308C9.88942 0.253068 10.5 0.000338321 11.1365 0.000488348C11.7731 0.000638375 12.3835 0.253655 12.8335 0.703879C13.2836 1.1541 13.5363 1.76465 13.5361 2.40122C13.536 3.03778 13.283 3.64821 12.8327 4.09822L5.49527 11.4341C5.42076 11.5084 5.36166 11.5967 5.32133 11.6939C5.281 11.7911 5.26024 11.8953 5.26024 12.0005C5.26024 12.1057 5.281 12.2099 5.32133 12.3071C5.36166 12.4043 5.42076 12.4926 5.49527 12.5669L12.8327 19.9028C13.283 20.3528 13.536 20.9632 13.5361 21.5998C13.5363 22.2363 13.2836 22.8469 12.8335 23.2971C12.3835 23.7473 11.7731 24.0003 11.1365 24.0005C10.5 24.0006 9.88942 23.7479 9.4392 23.2979L2.10172 15.9604C1.05337 14.9092 0.464653 13.4851 0.464653 12.0005C0.464653 10.5159 1.05337 9.09179 2.10172 8.04055Z" fill="#FDFBE5"/>
</svg>
