<svg width="243" height="22" viewBox="0 0 243 22" fill="none" xmlns="http://www.w3.org/2000/svg">
<path d="M168.5 12.6997L242.2 11.1997L168.5 9.69971L157.6 11.1997L168.5 12.6997Z" fill="#D6DBE8"/>
<path d="M121.4 21.8999C121.4 19.5999 130 10.8999 132.4 10.8999C130.1 10.8999 121.4 2.2999 121.4 -0.100098C121.4 2.1999 112.8 10.8999 110.4 10.8999C112.8 10.9999 121.4 19.5999 121.4 21.8999Z" fill="#D6DBE8"/>
<path d="M236.4 14.8C236.4 14 239.4 10.9 240.3 10.9C239.5 10.9 236.4 7.9 236.4 7C236.4 7.8 233.4 10.9 232.5 10.9C233.4 11 236.4 14 236.4 14.8Z" fill="#D6DBE8"/>
<path d="M240.6 13.0997C240.6 12.5997 242.3 10.8997 242.8 10.8997C242.3 10.8997 240.6 9.19971 240.6 8.69971C240.6 9.19971 238.9 10.8997 238.4 10.8997C238.9 10.9997 240.6 12.6997 240.6 13.0997Z" fill="#D6DBE8"/>
<path d="M139.8 18.4998C139.8 16.8998 155.4 10.8998 157.1 10.8998C155.5 10.8998 139.8 4.8998 139.8 3.2998C139.8 4.8998 133.8 10.8998 132.2 10.8998C133.8 10.9998 139.8 16.8998 139.8 18.4998Z" fill="#D6DBE8"/>
<path d="M74.3 12.6997L0.5 11.1997L74.3 9.69971L85.2 11.1997L74.3 12.6997Z" fill="#D6DBE8"/>
<path d="M6.30039 14.8C6.30039 14 3.30039 10.9 2.40039 10.9C3.20039 10.9 6.30039 7.9 6.30039 7C6.30039 7.8 9.30039 10.9 10.2004 10.9C9.30039 11 6.30039 14 6.30039 14.8Z" fill="#D6DBE8"/>
<path d="M2.2 13.0998C2.2 12.6998 0.5 10.9998 0 10.9998C0.5 10.9998 2.2 9.2998 2.2 8.7998C2.2 9.2998 3.9 10.9998 4.4 10.9998C3.9 10.9998 2.2 12.6998 2.2 13.0998Z" fill="#D6DBE8"/>
<path d="M103 18.4998C103 16.8998 87.4002 10.8998 85.7002 10.8998C87.3002 10.8998 103 4.8998 103 3.2998C103 4.8998 109 10.8998 110.6 10.8998C108.9 10.9998 103 16.8998 103 18.4998Z" fill="#D6DBE8"/>
<path d="M102.5 16.9001C102.5 15.6001 90.3 11.0001 89 11.0001C90.3 11.0001 102.5 6.3001 102.5 5.1001C102.5 6.4001 107.2 11.0001 108.4 11.0001C107.2 11.0001 102.5 15.6001 102.5 16.9001Z" fill="#D6DBE8"/>
</svg>
