<svg width="100" height="100" viewBox="0 0 100 100" fill="none" xmlns="http://www.w3.org/2000/svg">
<mask id="path-1-inside-1_0_1075" fill="white">
<path fill-rule="evenodd" clip-rule="evenodd" d="M38.4517 0L38.3333 0.118408L50.1184 11.9035L61.9035 0.118408L61.7851 0H100V38.4518L88.3334 50.1185L100 61.7851V100H61.7851L50.1184 88.3334L38.4518 100H0V61.7852L0.118425 61.9036L11.9035 50.1185L0.118425 38.3334L0 38.4518V0H38.4517Z"/>
</mask>
<path fill-rule="evenodd" clip-rule="evenodd" d="M38.4517 0L38.3333 0.118408L50.1184 11.9035L61.9035 0.118408L61.7851 0H100V38.4518L88.3334 50.1185L100 61.7851V100H61.7851L50.1184 88.3334L38.4518 100H0V61.7852L0.118425 61.9036L11.9035 50.1185L0.118425 38.3334L0 38.4518V0H38.4517Z" fill="url(#paint0_linear_0_1075)"/>
<path d="M38.3333 0.118408L35.5049 -2.71002L32.6765 0.118408L35.5049 2.94684L38.3333 0.118408ZM38.4517 0L41.2801 2.82843L48.1086 -4H38.4517V0ZM50.1184 11.9035L47.29 14.7319L50.1184 17.5604L52.9468 14.7319L50.1184 11.9035ZM61.9035 0.118408L64.732 2.94684L67.5604 0.118408L64.732 -2.71002L61.9035 0.118408ZM61.7851 0V-4H52.1283L58.9567 2.82843L61.7851 0ZM100 0H104V-4H100V0ZM100 38.4518L102.828 41.2803L104 40.1087V38.4518H100ZM88.3334 50.1185L85.5049 47.29L82.6765 50.1185L85.5049 52.9469L88.3334 50.1185ZM100 61.7851H104V60.1282L102.828 58.9567L100 61.7851ZM100 100V104H104V100H100ZM61.7851 100L58.9566 102.828L60.1282 104H61.7851V100ZM50.1184 88.3334L52.9468 85.5049L50.1184 82.6765L47.29 85.5049L50.1184 88.3334ZM38.4518 100V104H40.1086L41.2802 102.828L38.4518 100ZM0 100H-4V104H0V100ZM0 61.7852L2.8284 58.9567L-4 52.1284V61.7852H0ZM0.118425 61.9036L-2.70998 64.732L0.118448 67.5604L2.94685 64.732L0.118425 61.9036ZM11.9035 50.1185L14.732 52.9469L17.5604 50.1185L14.732 47.29L11.9035 50.1185ZM0.118425 38.3334L2.94685 35.5049L0.118448 32.6765L-2.70998 35.5049L0.118425 38.3334ZM0 38.4518H-4V48.1085L2.8284 41.2802L0 38.4518ZM0 0V-4H-4V0H0ZM41.1617 2.94684L41.2801 2.82843L35.6233 -2.82843L35.5049 -2.71002L41.1617 2.94684ZM52.9468 9.07509L41.1617 -2.71002L35.5049 2.94684L47.29 14.7319L52.9468 9.07509ZM59.0751 -2.71002L47.29 9.07509L52.9468 14.7319L64.732 2.94684L59.0751 -2.71002ZM58.9567 2.82843L59.0751 2.94684L64.732 -2.71002L64.6136 -2.82843L58.9567 2.82843ZM100 -4H61.7851V4H100V-4ZM104 38.4518V0H96V38.4518H104ZM91.1618 52.9469L102.828 41.2803L97.1716 35.6234L85.5049 47.29L91.1618 52.9469ZM102.828 58.9567L91.1618 47.29L85.5049 52.9469L97.1716 64.6135L102.828 58.9567ZM104 100V61.7851H96V100H104ZM61.7851 104H100V96H61.7851V104ZM47.29 91.1618L58.9566 102.828L64.6135 97.1716L52.9468 85.5049L47.29 91.1618ZM41.2802 102.828L52.9468 91.1618L47.29 85.5049L35.6234 97.1716L41.2802 102.828ZM0 104H38.4518V96H0V104ZM-4 61.7852V100H4V61.7852H-4ZM2.94683 59.0751L2.8284 58.9567L-2.8284 64.6136L-2.70998 64.732L2.94683 59.0751ZM9.07511 47.29L-2.71 59.0752L2.94685 64.732L14.732 52.9469L9.07511 47.29ZM-2.71 41.1618L9.07511 52.9469L14.732 47.29L2.94685 35.5049L-2.71 41.1618ZM2.8284 41.2802L2.94683 41.1618L-2.70998 35.5049L-2.8284 35.6233L2.8284 41.2802ZM-4 0V38.4518H4V0H-4ZM38.4517 -4H0V4H38.4517V-4Z" fill="#FDFBE5" mask="url(#path-1-inside-1_0_1075)"/>
<defs>
<linearGradient id="paint0_linear_0_1075" x1="50" y1="0" x2="50" y2="100" gradientUnits="userSpaceOnUse">
<stop stop-color="#012039" stop-opacity="0.6"/>
<stop offset="1" stop-color="#012039" stop-opacity="0.2"/>
</linearGradient>
</defs>
</svg>
